<?xml version="1.0" encoding="utf-8"?>
<!-- Generator: Adobe Illustrator 27.1.0, SVG Export Plug-In . SVG Version: 6.00 Build 0)  -->
<svg version="1.1" id="Layer_1" xmlns="http://www.w3.org/2000/svg" xmlns:xlink="http://www.w3.org/1999/xlink" x="0px" y="0px"
	 viewBox="0 0 48 48" style="enable-background:new 0 0 48 48;" xml:space="preserve">
<style type="text/css">
	.st0{fill:#FFFFFF;}
</style>
<path class="st0" d="M11.4,4l3,10.7v5.1h2.6v-5.1l3-10.7h-2.6l-1.1,4.9c-0.3,1.4-0.5,2.4-0.6,3h-0.1c-0.1-0.8-0.3-1.9-0.6-3.1
	l-1-4.8H11.4z M22.9,8c-0.9,0-1.6,0.2-2.1,0.5c-0.5,0.3-0.9,0.9-1.2,1.6c-0.2,0.8-0.4,1.8-0.4,3v1.7c0,1.2,0.1,2.2,0.3,3
	s0.6,1.3,1.1,1.6c0.5,0.4,1.2,0.5,2.2,0.5c0.9,0,1.6-0.2,2.1-0.5c0.5-0.3,0.9-0.9,1.1-1.6s0.3-1.7,0.3-3v-1.7c0-1.2-0.1-2.2-0.4-3
	c-0.2-0.7-0.6-1.3-1.1-1.6C24.4,8.2,23.7,8,22.9,8z M27.8,8.3v8.6c0,1.1,0.2,1.9,0.5,2.4c0.4,0.5,0.9,0.8,1.7,0.8
	c1.1,0,1.9-0.5,2.5-1.6h0.1l0.2,1.4h2V8.3h-2.6v9.2c-0.1,0.2-0.3,0.4-0.5,0.5c-0.2,0.1-0.4,0.2-0.6,0.2c-0.3,0-0.5-0.1-0.6-0.3
	s-0.2-0.6-0.2-1.1V8.3H27.8z M22.8,9.8c0.4,0,0.6,0.2,0.8,0.6c0.1,0.4,0.2,1,0.2,1.8v3.6c0,0.9-0.1,1.5-0.2,1.8
	c-0.1,0.4-0.4,0.6-0.8,0.6c-0.4,0-0.6-0.2-0.8-0.6c-0.1-0.4-0.2-1-0.2-1.8v-3.6c0-0.8,0.1-1.4,0.2-1.8C22.2,10,22.5,9.8,22.8,9.8z
	 M10,22c-2.2,0-4,1.8-4,4v14c0,2.2,1.8,4,4,4h28c2.2,0,4-1.8,4-4V26c0-2.2-1.8-4-4-4H10z M24.1,26h2.1v5.1h0
	c0.2-0.4,0.5-0.7,0.8-0.9c0.4-0.2,0.7-0.3,1.1-0.3c0.5,0,0.9,0.1,1.2,0.4c0.3,0.3,0.5,0.7,0.6,1.3c0.1,0.6,0.2,1.5,0.2,2.6v1.5h0
	c0,1.5-0.2,2.5-0.5,3.2c-0.4,0.7-0.9,1-1.6,1c-0.4,0-0.8-0.1-1.1-0.3c-0.3-0.2-0.6-0.5-0.8-0.8h0l-0.2,0.9h-1.8V26z M11,26.5h6.5
	v1.8h-2.2v11.6h-2.1V28.3H11V26.5z M34.2,29.9c0.8,0,1.3,0.1,1.7,0.4c0.4,0.3,0.7,0.7,0.9,1.3C36.9,32.2,37,33,37,34v1.7h-3.7v0.5
	c0,0.6,0,1.1,0.1,1.4c0,0.3,0.1,0.5,0.2,0.7c0.1,0.1,0.3,0.2,0.5,0.2c0.3,0,0.6-0.1,0.7-0.4c0.1-0.3,0.2-0.7,0.2-1.3l1.9,0.1
	c0,0.1,0,0.2,0,0.4c0,0.9-0.2,1.6-0.7,2C35.7,39.8,35,40,34.1,40c-1.1,0-1.8-0.3-2.3-1s-0.7-1.7-0.7-3.1v-1.7c0-1.5,0.2-2.5,0.7-3.2
	S33.1,29.9,34.2,29.9z M16.8,30.1H19v7.2c0,0.4,0,0.7,0.1,0.9c0.1,0.2,0.3,0.3,0.5,0.3c0.2,0,0.4-0.1,0.6-0.2
	c0.2-0.1,0.3-0.3,0.4-0.4v-7.7h2.2v9.8h0h-1.7l-0.2-1.2h-0.1c-0.5,0.9-1.2,1.4-2.1,1.4c-0.6,0-1.1-0.2-1.4-0.6s-0.5-1.1-0.5-2V30.1z
	 M34.1,31.4c-0.2,0-0.4,0.1-0.5,0.2c-0.1,0.1-0.2,0.4-0.2,0.7c0,0.3-0.1,0.8-0.1,1.4v0.7H35v-0.7c0-0.6,0-1.1-0.1-1.4
	c0-0.3-0.1-0.6-0.2-0.7S34.4,31.4,34.1,31.4z M27.2,31.5c-0.2,0-0.4,0.1-0.6,0.3s-0.3,0.4-0.4,0.7v5.5c0.1,0.2,0.2,0.3,0.4,0.4
	c0.2,0.1,0.3,0.1,0.5,0.1c0.2,0,0.4-0.1,0.6-0.3c0.1-0.2,0.2-0.5,0.3-0.9c0.1-0.4,0.1-1,0.1-1.7v-1.3c0-0.8,0-1.4-0.1-1.8
	c0-0.4-0.1-0.7-0.3-0.9C27.6,31.5,27.4,31.5,27.2,31.5z"/>
</svg>
